<?xml version="1.0" standalone="no"?>
<!DOCTYPE svg PUBLIC "-//W3C//DTD SVG 20010904//EN"
 "http://www.w3.org/TR/2001/REC-SVG-20010904/DTD/svg10.dtd">
<svg version="1.0" xmlns="http://www.w3.org/2000/svg"
 width="50.000000pt" height="50.000000pt" viewBox="0 0 50.000000 50.000000"
 preserveAspectRatio="xMidYMid meet">

<g transform="translate(0.000000,50.000000) scale(0.100000,-0.100000)"
fill="#000000" stroke="none">
<path d="M119 462 c-43 -23 -69 -60 -76 -110 -4 -33 1 -54 25 -104 16 -35 37
-92 46 -128 18 -68 38 -100 66 -100 28 0 37 20 49 109 16 125 26 125 42 0 12
-89 21 -109 49 -109 27 0 47 30 65 100 9 36 30 93 47 128 24 50 29 71 25 104
-7 50 -33 87 -76 110 -47 24 -215 24 -262 0z m147 -33 c29 -27 45 -18 19 11
-18 20 -18 20 22 20 46 0 101 -32 120 -70 19 -38 16 -76 -14 -133 -14 -29 -34
-83 -44 -121 -18 -72 -42 -108 -58 -91 -5 6 -15 48 -21 95 -13 97 -15 100 -40
100 -25 0 -27 -3 -40 -100 -6 -47 -16 -89 -21 -95 -16 -17 -40 19 -58 91 -10
38 -30 93 -46 123 -43 86 -25 153 50 187 40 19 101 11 131 -17z"/>
</g>
</svg>
